<svg
  width="260"
  height="80"
  viewBox="0 0 260 80"
  fill="none"
  xmlns="http://www.w3.org/2000/svg"
>
  <g clip-path="url(#clip0_317_549)">
    <path d="M140.476 0.0404654H0V80H140.476V0.0404654Z" fill="#002452" />
    <path d="M260.01 0H140.476V79.9595H260.01V0Z" fill="#0094BF" />
    <path
      d="M45.4785 21.1229C48.9215 22.8933 51.5747 25.4122 53.4481 28.6798C55.3215 31.9474 56.2633 35.741 56.2633 40.0708C56.2633 44.4006 55.3215 48.1639 53.4481 51.4011C51.5747 54.6282 48.9215 57.127 45.4785 58.8973C42.0354 60.6677 38.0557 61.5478 33.519 61.5478H18.4405V18.4724H33.519C38.0456 18.4724 42.0354 19.3627 45.4785 21.1229ZM43.7164 50.5008C46.1873 48.0324 47.4228 44.5524 47.4228 40.0708C47.4228 35.5893 46.1873 32.0789 43.7164 29.5498C41.2456 27.0207 37.7418 25.7562 33.2152 25.7562H27.0987V54.2033H33.2152C37.7418 54.2033 41.2456 52.9691 43.7164 50.5008Z"
      fill="white"
    />
    <path
      d="M74.1671 28.4067C75.9595 27.3748 78.0051 26.869 80.3139 26.869V35.9433H78.0253C75.3114 35.9433 73.2557 36.5807 71.8785 37.8553C70.5013 39.13 69.8127 41.3556 69.8127 44.522V61.5579H61.1646V27.3546H69.8127V32.6657C70.9266 30.8548 72.3747 29.4385 74.1671 28.4067Z"
      fill="white"
    />
    <path
      d="M185.559 18.432V25.4122H167.575V36.4593H181.357V43.308H167.575V61.5175H158.927V18.432H185.559Z"
      fill="white"
    />
    <path
      d="M231.747 61.5073L222.42 47.0106L213.954 61.5073H204.192L217.782 39.7876L204.01 18.432H213.954L223.281 32.8781L231.686 18.432H241.448L227.919 40.1012L241.691 61.5073H231.747Z"
      fill="white"
    />
    <path d="M199.109 18.432H190.461V25.4527H199.109V18.432Z" fill="white" />
    <path d="M199.109 30.8953H190.461V61.5175H199.109V30.8953Z" fill="white" />
    <path
      d="M94.3393 71.2392H103.453L121.914 27.3546H112.709L103.747 51.2393L94.9165 27.3546H85.2152L98.9367 60.6879L94.3393 71.2392Z"
      fill="white"
    />
  </g>
  <defs>
    <clipPath id="clip0_317_549">
      <rect width="260" height="80" fill="white" />
    </clipPath>
  </defs>
</svg>
